# File created by Blade
# Date/Time:  Wed Jan 21 17:47:32 2015
# Frame Rate: 120.000 fps
#------------------------------------------------------
:FULLY-SPECIFIED
:DEGREES
297
root 14.375450 31.421090 -22.736166 -192.604670 69.023669 -195.588494
Spine -8.670093 -3.384846 -6.436526
Head 39.273808 -10.927305 -3.121902
LeftShoulder -16.704423 -14.207600 -2.636116
LeftArm -24.286805 6.080538 -63.023890
LeftForeArm -5.565186 -0.000000 4.330115
LeftHand -2.111196 -0.000000 5.446925
LeftHandThumb1 -26.253704 0.000000 33.147579
RightShoulder -17.080102 -23.425953 9.976311
RightArm 0.135846 -5.582861 64.825056
RightForeArm -21.185771 0.000000 13.096157
RightHand 0.667180 -0.000000 12.255205
RightHandThumb1 -24.326973 -0.000000 -32.862282
LeftUpLeg 25.857775 2.642094 -7.932391
LeftLeg 1.859665 -0.000000 -0.000000
LeftFoot -42.567887 16.973940 -17.326853
LeftToeBase 20.111233 -0.000000 -0.000000
RightUpLeg -40.860604 -11.861001 -5.148141
RightLeg 17.123499 -0.000000 -0.000000
RightFoot 4.131528 -31.773287 7.615435
RightToeBase 11.523036 -0.000000 -0.000000
298
root 14.496315 31.373641 -22.711000 -192.087879 69.481431 -195.272543
Spine -8.674771 -3.130172 -6.057095
Head 38.789359 -10.792649 -3.039493
LeftShoulder -16.571751 -14.375716 -2.559710
LeftArm -24.546713 5.508365 -63.235977
LeftForeArm -5.325551 -0.000000 4.333763
LeftHand -2.187763 -0.000000 5.639694
LeftHandThumb1 -26.253704 0.000000 33.147579
RightShoulder -16.750957 -23.178574 9.640575
RightArm 0.455925 -5.630028 64.828136
RightForeArm -21.184834 -0.000000 13.266204
RightHand 0.561908 -0.000000 12.152522
RightHandThumb1 -24.326973 -0.000000 -32.862282
LeftUpLeg 25.762149 2.790606 -7.741313
LeftLeg 1.990801 -0.000000 -0.000000
LeftFoot -42.852775 17.099249 -17.531508
LeftToeBase 20.054452 -0.000000 -0.000000
RightUpLeg -41.692965 -11.930922 -4.471062
RightLeg 18.052787 -0.000000 -0.000000
RightFoot 4.654474 -30.804109 6.815326
RightToeBase 14.340173 -0.000000 -0.000000
299
root 14.620450 31.329557 -22.682111 -191.501911 69.871753 -194.875053
Spine -8.641152 -2.941180 -5.698147
Head 38.287115 -10.686059 -2.934652
LeftShoulder -16.367449 -14.464561 -2.452554
LeftArm -24.775772 4.946263 -63.550236
LeftForeArm -5.189992 -0.000000 4.354669
LeftHand -2.165610 -0.000000 5.672501
LeftHandThumb1 -26.253704 0.000000 33.147579
RightShoulder -16.462917 -23.032342 9.339105
RightArm 0.881101 -5.610682 64.864502
RightForeArm -21.268072 -0.000000 13.536537
RightHand 0.463910 -0.000000 11.958286
RightHandThumb1 -24.326973 -0.000000 -32.862282
LeftUpLeg 25.688985 2.897180 -7.516041
LeftLeg 2.100614 -0.000000 -0.000000
LeftFoot -43.107857 17.218953 -17.709992
LeftToeBase 20.061068 -0.000000 -0.000000
RightUpLeg -42.545517 -12.076269 -3.796353
RightLeg 19.047620 -0.000000 -0.000000
RightFoot 4.616434 -30.248408 6.768042
RightToeBase 16.107631 -0.000000 -0.000000
300
root 14.742847 31.284966 -22.647995 -190.904909 70.219533 -194.405088
Spine -8.464755 -2.849636 -5.338960
Head 37.678083 -10.516110 -2.800840
LeftShoulder -16.157581 -14.550709 -2.362650
LeftArm -24.975027 4.250777 -63.790463
LeftForeArm -4.645173 -0.000000 4.538631
LeftHand -2.415162 0.000000 5.487433
LeftHandThumb1 -26.253704 0.000000 33.147579
RightShoulder -16.063377 -22.715489 8.979812
RightArm 1.130703 -5.630265 64.915997
RightForeArm -21.359705 -0.000000 13.972601
RightHand 0.477621 -0.000000 11.888024
RightHandThumb1 -24.326973 -0.000000 -32.862282
LeftUpLeg 25.597643 3.127203 -7.186095
LeftLeg 2.366855 -0.000000 -0.000000
LeftFoot -43.355709 17.128271 -17.820546
LeftToeBase 19.974893 -0.000000 -0.000000
RightUpLeg -43.356004 -12.036328 -3.264710
RightLeg 20.250855 -0.000000 -0.000000
RightFoot 4.333403 -30.218004 6.979598
RightToeBase 17.557457 -0.000000 -0.000000
301
root 14.858250 31.245261 -22.614690 -190.380669 70.526671 -194.044451
Spine -8.283178 -2.816309 -5.064621
Head 37.040231 -10.368910 -2.588221
LeftShoulder -15.911608 -14.676516 -2.252298
LeftArm -25.185605 3.835666 -64.143091
LeftForeArm -4.480288 -0.000000 4.582672
LeftHand -2.345347 -0.000000 5.055003
LeftHandThumb1 -26.253704 0.000000 33.147579
RightShoulder -15.673430 -22.503792 8.685946
RightArm 1.509254 -5.615116 64.955791
RightForeArm -21.342931 -0.000000 14.483095
RightHand 0.463605 -0.000000 11.763222
RightHandThumb1 -24.326973 -0.000000 -32.862282
LeftUpLeg 25.501901 3.260352 -6.946226
LeftLeg 2.555371 -0.000000 -0.000000
LeftFoot -43.568240 17.100152 -17.997796
LeftToeBase 19.915946 -0.000000 -0.000000
RightUpLeg -44.179454 -11.902437 -2.869434
RightLeg 21.555717 -0.000000 -0.000000
RightFoot 3.617954 -30.217100 7.612944
RightToeBase 18.904950 -0.000000 -0.000000
302
root 14.978156 31.203944 -22.578478 -189.791161 70.765058 -193.527864
Spine -7.944349 -2.832003 -4.771773
Head 36.294319 -10.206325 -2.331280
LeftShoulder -15.660277 -14.733535 -2.185716
LeftArm -25.233390 3.617303 -64.592048
LeftForeArm -4.235049 0.000000 4.627947
LeftHand -2.230475 0.000000 4.603052
LeftHandThumb1 -26.253704 0.000000 33.147579
RightShoulder -15.355585 -22.262347 8.432350
RightArm 1.914899 -5.754924 64.945807
RightForeArm -21.121252 0.000000 15.141439
RightHand 0.410227 -0.000000 11.711716
RightHandThumb1 -24.326973 -0.000000 -32.862282
LeftUpLeg 25.455453 3.447400 -6.598422
LeftLeg 2.830775 -0.000000 -0.000000
LeftFoot -43.784352 16.957216 -18.099075
LeftToeBase 19.852033 -0.000000 -0.000000
RightUpLeg -44.865591 -11.712803 -2.541425
RightLeg 22.895538 -0.000000 -0.000000
RightFoot 2.843812 -30.033187 8.074554
RightToeBase 20.281011 -0.000000 -0.000000
303
root 15.103425 31.166831 -22.536883 -188.813595 70.934928 -192.659700
Spine -7.669613 -2.947666 -4.360718
Head 35.576650 -10.038000 -2.106910
LeftShoulder -15.482910 -14.816726 -2.143977
LeftArm -25.203235 3.598880 -65.034587
LeftForeArm -3.934959 -0.000000 4.537641
LeftHand -2.122978 -0.000000 4.029562
LeftHandThumb1 -26.253704 0.000000 33.147579
RightShoulder -15.079503 -22.005429 8.179389
RightArm 2.300138 -6.010724 64.901173
RightForeArm -21.001210 -0.000000 15.787294
RightHand 0.519072 -0.000000 11.509253
RightHandThumb1 -24.326973 -0.000000 -32.862282
LeftUpLeg 25.398289 3.675760 -6.067411
LeftLeg 3.038067 -0.000000 -0.000000
LeftFoot -43.933075 16.688774 -18.128649
LeftToeBase 19.858944 -0.000000 -0.000000
RightUpLeg -45.549121 -11.513016 -2.167931
RightLeg 24.232666 -0.000000 -0.000000
RightFoot 1.994637 -29.713158 8.870550
RightToeBase 20.356015 -0.000000 -0.000000
304
root 15.232311 31.133080 -22.495563 -188.088507 71.045735 -191.982384
Spine -7.279114 -3.057814 -4.105857
Head 34.853596 -9.938695 -1.791381
LeftShoulder -15.248562 -14.937776 -2.102534
LeftArm -25.137595 3.823385 -65.509653
LeftForeArm -3.568014 0.000000 4.423724
LeftHand -1.837815 -0.000000 3.285768
LeftHandThumb1 -26.253704 0.000000 33.147579
RightShoulder -14.845057 -21.728832 8.025365
RightArm 2.676395 -6.142721 64.858521
RightForeArm -21.032027 0.000000 16.461286
RightHand 0.642885 -0.000000 11.204521
RightHandThumb1 -24.326973 -0.000000 -32.862282
LeftUpLeg 25.409312 3.807999 -5.640577
LeftLeg 3.252564 -0.000000 -0.000000
LeftFoot -44.090469 16.428728 -18.252902
LeftToeBase 19.759085 -0.000000 -0.000000
RightUpLeg -46.082409 -11.219308 -1.988543
RightLeg 25.508649 -0.000000 -0.000000
RightFoot 1.104390 -29.412664 9.471404
RightToeBase 20.480449 -0.000000 -0.000000
305
root 15.353621 31.101139 -22.447759 -187.118173 71.006876 -191.179140
Spine -7.018744 -3.339985 -3.840832
Head 34.133269 -9.780981 -1.437307
LeftShoulder -15.074028 -15.039389 -2.067330
LeftArm -24.966387 4.186309 -65.988704
LeftForeArm -3.135932 -0.000000 4.224280
LeftHand -1.558867 -0.000000 2.697113
LeftHandThumb1 -26.253704 0.000000 33.147579
RightShoulder -14.649531 -21.525644 7.904036
RightArm 3.140265 -6.288366 64.783295
RightForeArm -20.782988 -0.000000 17.093321
RightHand 0.884798 0.000000 10.788458
RightHandThumb1 -24.326973 -0.000000 -32.862282
LeftUpLeg 25.348600 4.098131 -5.034205
LeftLeg 3.326516 -0.000000 -0.000000
LeftFoot -44.105608 16.014000 -18.126656
LeftToeBase 19.827936 -0.000000 -0.000000
RightUpLeg -46.706389 -11.091484 -1.756699
RightLeg 26.716510 -0.000000 -0.000000
RightFoot 0.315157 -29.194455 9.921199
RightToeBase 20.476857 -0.000000 -0.000000
306
root 15.490517 31.069098 -22.399271 -185.961068 70.969622 -190.109336
Spine -6.693714 -3.704408 -3.435400
Head 33.435213 -9.586482 -1.235606
LeftShoulder -14.987860 -15.213553 -2.117508
LeftArm -24.943830 5.262067 -66.672207
LeftForeArm -3.184126 -0.000000 4.273281
LeftHand -1.404613 -0.000000 2.417460
LeftHandThumb1 -26.253704 0.000000 33.147579
RightShoulder -14.393515 -21.338263 7.709398
RightArm 3.569280 -6.412813 64.710791
RightForeArm -20.662304 0.000000 17.796336
RightHand 0.967729 -0.000000 10.457337
RightHandThumb1 -24.326973 -0.000000 -32.862282
LeftUpLeg 25.350186 4.357242 -4.337211
LeftLeg 3.466606 -0.000000 -0.000000
LeftFoot -44.153232 15.551388 -18.046456
LeftToeBase 19.805314 -0.000000 -0.000000
RightUpLeg -47.173811 -10.919189 -1.457659
RightLeg 27.764465 -0.000000 -0.000000
RightFoot -0.397319 -29.213718 10.278977
RightToeBase 20.553297 -0.000000 -0.000000
307
root 15.622126 31.038351 -22.345500 -184.869240 70.840419 -189.222434
Spine -6.488764 -4.056311 -3.204881
Head 32.797699 -9.469188 -0.841132
LeftShoulder -14.855610 -15.308857 -2.095572
LeftArm -24.733268 5.774732 -67.066968
LeftForeArm -2.445956 -0.000000 4.191101
LeftHand -1.236784 -0.000000 1.883153
LeftHandThumb1 -26.253704 0.000000 33.147579
RightShoulder -14.264008 -21.085719 7.646817
RightArm 3.924957 -6.556399 64.620857
RightForeArm -20.496136 -0.000000 18.512511
RightHand 0.978152 -0.000000 10.197769
RightHandThumb1 -24.326973 -0.000000 -32.862282
LeftUpLeg 25.245409 4.625801 -3.656935
LeftLeg 3.574667 -0.000000 -0.000000
LeftFoot -44.117811 15.040609 -17.902469
LeftToeBase 19.782994 -0.000000 -0.000000
RightUpLeg -47.710328 -10.813415 -1.197924
RightLeg 28.678731 -0.000000 -0.000000
RightFoot -1.005695 -29.314510 10.454079
RightToeBase 20.733800 -0.000000 -0.000000
308
root 15.755623 31.009520 -22.295625 -183.826271 70.640312 -188.379992
Spine -6.303371 -4.445855 -2.995688
Head 32.235933 -9.377776 -0.407233
LeftShoulder -14.651950 -15.609005 -2.099421
LeftArm -24.753242 6.252013 -67.370865
LeftForeArm -1.700046 -0.000000 4.137884
LeftHand -1.062615 -0.000000 1.769992
LeftHandThumb1 -26.253704 0.000000 33.147579
RightShoulder -14.092740 -20.890258 7.612373
RightArm 4.195568 -6.541414 64.541902
RightForeArm -20.395501 0.000000 19.320740
RightHand 0.927699 -0.000000 9.704244
RightHandThumb1 -24.326973 -0.000000 -32.862282
LeftUpLeg 25.233297 4.851171 -2.994118
LeftLeg 3.498669 -0.000000 -0.000000
LeftFoot -43.998646 14.558059 -17.754732
LeftToeBase 19.802913 -0.000000 -0.000000
RightUpLeg -48.214536 -10.857959 -0.883051
RightLeg 29.540479 -0.000000 -0.000000
RightFoot -1.569243 -29.334170 10.300378
RightToeBase 21.035034 -0.000000 -0.000000
309
root 15.891413 30.981767 -22.239147 -182.676544 70.416552 -187.481905
Spine -6.183859 -4.828850 -2.797672
Head 31.751867 -9.353400 -0.025068
LeftShoulder -14.498894 -15.802270 -2.091474
LeftArm -24.623395 6.681694 -67.631242
LeftForeArm -0.802922 -0.000000 4.098551
LeftHand -0.859061 -0.000000 1.756121
LeftHandThumb1 -26.253704 0.000000 33.147579
RightShoulder -13.993527 -20.739895 7.645144
RightArm 4.541201 -6.514676 64.440413
RightForeArm -20.414519 -0.000000 20.017241
RightHand 0.916929 -0.000000 9.363434
RightHandThumb1 -24.326973 -0.000000 -32.862282
LeftUpLeg 25.151608 4.991249 -2.323549
LeftLeg 3.450689 -0.000000 -0.000000
LeftFoot -43.869464 14.122538 -17.691008
LeftToeBase 19.613783 -0.000000 -0.000000
RightUpLeg -48.706367 -10.906041 -0.521429
RightLeg 30.306546 -0.000000 -0.000000
RightFoot -2.157767 -29.331427 10.152094
RightToeBase 21.221789 -0.000000 -0.000000
